<?xml version="1.0" standalone="no"?>
<!DOCTYPE svg PUBLIC "-//W3C//DTD SVG 20010904//EN"
 "http://www.w3.org/TR/2001/REC-SVG-20010904/DTD/svg10.dtd">
<svg version="1.0" xmlns="http://www.w3.org/2000/svg"
 width="500.000000pt" height="500.000000pt" viewBox="0 0 500.000000 500.000000"
 preserveAspectRatio="xMidYMid meet">
<metadata>
Created by potrace 1.14, written by Peter Selinger 2001-2017
</metadata>
<g transform="translate(0.000000,500.000000) scale(0.100000,-0.100000)"
fill="#000000" stroke="none">
<path d="M0 2500 l0 -2500 2500 0 2500 0 0 2500 0 2500 -2500 0 -2500 0 0
-2500z m3688 1550 c51 -9 150 -36 159 -44 1 -1 -139 -663 -311 -1471 l-313
-1470 -291 -3 c-273 -2 -290 -1 -286 15 2 10 72 335 154 723 134 634 148 706
134 717 -51 38 -328 118 -447 129 l-73 6 -77 -178 c-261 -613 -437 -1271 -437
-1633 0 -93 19 -193 41 -216 22 -22 5 -27 -83 -20 -252 19 -375 96 -425 265
-20 67 -22 232 -4 340 58 351 252 863 493 1303 l76 137 -37 0 c-53 0 -151 -18
-224 -40 -78 -24 -139 -64 -172 -112 l-24 -35 25 -48 c65 -130 -9 -233 -175
-243 -99 -6 -152 10 -206 59 -52 48 -67 88 -67 173 1 88 32 164 98 235 96 104
214 168 404 219 86 23 116 26 308 28 l214 3 93 138 c393 578 805 943 1149
1018 74 16 219 18 304 5z"/>
<path d="M3140 3722 c-138 -102 -302 -303 -454 -557 -92 -152 -180 -326 -169
-334 4 -5 35 -13 68 -20 90 -18 295 -78 350 -101 26 -11 49 -19 50 -18 2 2 51
228 110 503 58 275 110 517 115 538 4 20 5 37 1 37 -3 0 -35 -22 -71 -48z"/>
</g>
</svg>
